<mxfile host="app.diagrams.net" modified="2020-08-03T00:44:28.398Z" agent="5.0 (Windows NT 6.1; Win64; x64) AppleWebKit/537.36 (KHTML, like Gecko) Chrome/84.0.4147.105 Safari/537.36" etag="kkgUDGdIgPDxWEmodUqr" version="13.5.4" type="github">
  <diagram id="H2OyWEgOupRw279F355V" name="Page-1">
    <mxGraphModel dx="1550" dy="836" grid="1" gridSize="10" guides="1" tooltips="1" connect="1" arrows="1" fold="1" page="1" pageScale="1" pageWidth="827" pageHeight="1169" math="0" shadow="0">
      <root>
        <mxCell id="0" />
        <mxCell id="1" parent="0" />
        <mxCell id="e2cg2YzqcunQsSNUU6SA-1" value="&lt;font style=&quot;font-size: 14px&quot;&gt;I&lt;/font&gt;" style="rounded=0;whiteSpace=wrap;html=1;" vertex="1" parent="1">
          <mxGeometry x="131.5" y="670" width="125" height="40" as="geometry" />
        </mxCell>
        <mxCell id="e2cg2YzqcunQsSNUU6SA-2" value="ES(e.g H.264)" style="text;html=1;align=center;verticalAlign=middle;resizable=0;points=[];autosize=1;" vertex="1" parent="1">
          <mxGeometry x="131.5" y="640" width="90" height="20" as="geometry" />
        </mxCell>
        <mxCell id="e2cg2YzqcunQsSNUU6SA-3" value="&lt;span style=&quot;font-size: 14px&quot;&gt;P&lt;/span&gt;" style="rounded=0;whiteSpace=wrap;html=1;" vertex="1" parent="1">
          <mxGeometry x="256.5" y="670" width="85" height="40" as="geometry" />
        </mxCell>
        <mxCell id="e2cg2YzqcunQsSNUU6SA-4" value="&lt;span style=&quot;font-size: 14px&quot;&gt;B&lt;/span&gt;" style="rounded=0;whiteSpace=wrap;html=1;" vertex="1" parent="1">
          <mxGeometry x="341.5" y="670" width="60" height="40" as="geometry" />
        </mxCell>
        <mxCell id="e2cg2YzqcunQsSNUU6SA-5" value="&lt;span style=&quot;font-size: 14px&quot;&gt;B&lt;/span&gt;" style="rounded=0;whiteSpace=wrap;html=1;" vertex="1" parent="1">
          <mxGeometry x="401.5" y="670" width="60" height="40" as="geometry" />
        </mxCell>
        <mxCell id="e2cg2YzqcunQsSNUU6SA-6" value="&lt;font style=&quot;font-size: 14px&quot;&gt;I&lt;/font&gt;" style="rounded=0;whiteSpace=wrap;html=1;" vertex="1" parent="1">
          <mxGeometry x="141.5" y="760" width="125" height="40" as="geometry" />
        </mxCell>
        <mxCell id="e2cg2YzqcunQsSNUU6SA-7" value="PES" style="text;html=1;align=center;verticalAlign=middle;resizable=0;points=[];autosize=1;" vertex="1" parent="1">
          <mxGeometry x="131.5" y="730" width="40" height="20" as="geometry" />
        </mxCell>
        <mxCell id="e2cg2YzqcunQsSNUU6SA-8" value="&lt;span style=&quot;font-size: 14px&quot;&gt;P&lt;/span&gt;" style="rounded=0;whiteSpace=wrap;html=1;" vertex="1" parent="1">
          <mxGeometry x="286.5" y="760" width="85" height="40" as="geometry" />
        </mxCell>
        <mxCell id="e2cg2YzqcunQsSNUU6SA-9" value="&lt;span style=&quot;font-size: 14px&quot;&gt;B&lt;/span&gt;" style="rounded=0;whiteSpace=wrap;html=1;" vertex="1" parent="1">
          <mxGeometry x="391.5" y="760" width="60" height="40" as="geometry" />
        </mxCell>
        <mxCell id="e2cg2YzqcunQsSNUU6SA-10" value="&lt;span style=&quot;font-size: 14px&quot;&gt;B&lt;/span&gt;" style="rounded=0;whiteSpace=wrap;html=1;" vertex="1" parent="1">
          <mxGeometry x="471.5" y="760" width="60" height="40" as="geometry" />
        </mxCell>
        <mxCell id="e2cg2YzqcunQsSNUU6SA-11" value="" style="rounded=0;whiteSpace=wrap;html=1;fillColor=#d5e8d4;strokeColor=#82b366;" vertex="1" parent="1">
          <mxGeometry x="131.5" y="760" width="10" height="40" as="geometry" />
        </mxCell>
        <mxCell id="e2cg2YzqcunQsSNUU6SA-12" value="" style="rounded=0;whiteSpace=wrap;html=1;fillColor=#d5e8d4;strokeColor=#82b366;" vertex="1" parent="1">
          <mxGeometry x="276.5" y="760" width="10" height="40" as="geometry" />
        </mxCell>
        <mxCell id="e2cg2YzqcunQsSNUU6SA-13" value="" style="rounded=0;whiteSpace=wrap;html=1;fillColor=#d5e8d4;strokeColor=#82b366;" vertex="1" parent="1">
          <mxGeometry x="381.5" y="760" width="10" height="40" as="geometry" />
        </mxCell>
        <mxCell id="e2cg2YzqcunQsSNUU6SA-14" value="" style="rounded=0;whiteSpace=wrap;html=1;fillColor=#d5e8d4;strokeColor=#82b366;" vertex="1" parent="1">
          <mxGeometry x="461.5" y="760" width="10" height="40" as="geometry" />
        </mxCell>
        <mxCell id="e2cg2YzqcunQsSNUU6SA-15" value="TS" style="text;html=1;align=center;verticalAlign=middle;resizable=0;points=[];autosize=1;" vertex="1" parent="1">
          <mxGeometry x="131.5" y="820" width="30" height="20" as="geometry" />
        </mxCell>
        <mxCell id="e2cg2YzqcunQsSNUU6SA-16" value="&lt;font style=&quot;font-size: 14px&quot;&gt;I&lt;/font&gt;" style="rounded=0;whiteSpace=wrap;html=1;" vertex="1" parent="1">
          <mxGeometry x="151.5" y="850" width="30" height="40" as="geometry" />
        </mxCell>
        <mxCell id="e2cg2YzqcunQsSNUU6SA-17" value="" style="rounded=0;whiteSpace=wrap;html=1;fillColor=#d5e8d4;strokeColor=#82b366;" vertex="1" parent="1">
          <mxGeometry x="141.5" y="850" width="10" height="40" as="geometry" />
        </mxCell>
        <mxCell id="e2cg2YzqcunQsSNUU6SA-18" value="&lt;font style=&quot;font-size: 14px&quot;&gt;I&lt;/font&gt;" style="rounded=0;whiteSpace=wrap;html=1;" vertex="1" parent="1">
          <mxGeometry x="201.5" y="850" width="40" height="40" as="geometry" />
        </mxCell>
        <mxCell id="e2cg2YzqcunQsSNUU6SA-19" value="&lt;font style=&quot;font-size: 14px&quot;&gt;I&lt;/font&gt;" style="rounded=0;whiteSpace=wrap;html=1;" vertex="1" parent="1">
          <mxGeometry x="261.5" y="850" width="40" height="40" as="geometry" />
        </mxCell>
        <mxCell id="e2cg2YzqcunQsSNUU6SA-20" value="" style="rounded=0;whiteSpace=wrap;html=1;fillColor=#fff2cc;strokeColor=#d6b656;" vertex="1" parent="1">
          <mxGeometry x="131.5" y="850" width="10" height="40" as="geometry" />
        </mxCell>
        <mxCell id="e2cg2YzqcunQsSNUU6SA-21" value="" style="rounded=0;whiteSpace=wrap;html=1;fillColor=#fff2cc;strokeColor=#d6b656;" vertex="1" parent="1">
          <mxGeometry x="191.5" y="850" width="10" height="40" as="geometry" />
        </mxCell>
        <mxCell id="e2cg2YzqcunQsSNUU6SA-22" value="" style="rounded=0;whiteSpace=wrap;html=1;fillColor=#fff2cc;strokeColor=#d6b656;" vertex="1" parent="1">
          <mxGeometry x="251.5" y="850" width="10" height="40" as="geometry" />
        </mxCell>
        <mxCell id="e2cg2YzqcunQsSNUU6SA-23" value="&lt;font style=&quot;font-size: 14px&quot;&gt;P&lt;/font&gt;" style="rounded=0;whiteSpace=wrap;html=1;" vertex="1" parent="1">
          <mxGeometry x="331.5" y="850" width="30" height="40" as="geometry" />
        </mxCell>
        <mxCell id="e2cg2YzqcunQsSNUU6SA-24" value="" style="rounded=0;whiteSpace=wrap;html=1;fillColor=#fff2cc;strokeColor=#d6b656;" vertex="1" parent="1">
          <mxGeometry x="311.5" y="850" width="10" height="40" as="geometry" />
        </mxCell>
        <mxCell id="e2cg2YzqcunQsSNUU6SA-25" value="&lt;font style=&quot;font-size: 14px&quot;&gt;P&lt;/font&gt;" style="rounded=0;whiteSpace=wrap;html=1;" vertex="1" parent="1">
          <mxGeometry x="381.5" y="850" width="40" height="40" as="geometry" />
        </mxCell>
        <mxCell id="e2cg2YzqcunQsSNUU6SA-26" value="" style="rounded=0;whiteSpace=wrap;html=1;fillColor=#fff2cc;strokeColor=#d6b656;" vertex="1" parent="1">
          <mxGeometry x="371.5" y="850" width="10" height="40" as="geometry" />
        </mxCell>
        <mxCell id="e2cg2YzqcunQsSNUU6SA-27" value="&lt;font style=&quot;font-size: 14px&quot;&gt;B&lt;/font&gt;" style="rounded=0;whiteSpace=wrap;html=1;" vertex="1" parent="1">
          <mxGeometry x="451.5" y="850" width="30" height="40" as="geometry" />
        </mxCell>
        <mxCell id="e2cg2YzqcunQsSNUU6SA-28" value="" style="rounded=0;whiteSpace=wrap;html=1;fillColor=#fff2cc;strokeColor=#d6b656;" vertex="1" parent="1">
          <mxGeometry x="431.5" y="850" width="10" height="40" as="geometry" />
        </mxCell>
        <mxCell id="e2cg2YzqcunQsSNUU6SA-29" value="&lt;font style=&quot;font-size: 14px&quot;&gt;B&lt;/font&gt;" style="rounded=0;whiteSpace=wrap;html=1;" vertex="1" parent="1">
          <mxGeometry x="511.5" y="850" width="30" height="40" as="geometry" />
        </mxCell>
        <mxCell id="e2cg2YzqcunQsSNUU6SA-30" value="" style="rounded=0;whiteSpace=wrap;html=1;fillColor=#fff2cc;strokeColor=#d6b656;" vertex="1" parent="1">
          <mxGeometry x="491.5" y="850" width="10" height="40" as="geometry" />
        </mxCell>
        <mxCell id="e2cg2YzqcunQsSNUU6SA-31" value="" style="rounded=0;whiteSpace=wrap;html=1;fillColor=#d5e8d4;strokeColor=#82b366;" vertex="1" parent="1">
          <mxGeometry x="321.5" y="850" width="10" height="40" as="geometry" />
        </mxCell>
        <mxCell id="e2cg2YzqcunQsSNUU6SA-32" value="" style="rounded=0;whiteSpace=wrap;html=1;fillColor=#d5e8d4;strokeColor=#82b366;" vertex="1" parent="1">
          <mxGeometry x="441.5" y="850" width="10" height="40" as="geometry" />
        </mxCell>
        <mxCell id="e2cg2YzqcunQsSNUU6SA-33" value="" style="rounded=0;whiteSpace=wrap;html=1;fillColor=#d5e8d4;strokeColor=#82b366;" vertex="1" parent="1">
          <mxGeometry x="501.5" y="850" width="10" height="40" as="geometry" />
        </mxCell>
        <mxCell id="e2cg2YzqcunQsSNUU6SA-34" style="edgeStyle=orthogonalEdgeStyle;rounded=0;orthogonalLoop=1;jettySize=auto;html=1;exitX=0.5;exitY=1;exitDx=0;exitDy=0;" edge="1" parent="1" source="e2cg2YzqcunQsSNUU6SA-35">
          <mxGeometry relative="1" as="geometry">
            <mxPoint x="94" y="420" as="targetPoint" />
          </mxGeometry>
        </mxCell>
        <mxCell id="e2cg2YzqcunQsSNUU6SA-35" value="" style="rounded=0;whiteSpace=wrap;html=1;dashed=1;" vertex="1" parent="1">
          <mxGeometry x="34" y="280" width="120" height="120" as="geometry" />
        </mxCell>
        <mxCell id="e2cg2YzqcunQsSNUU6SA-36" value="start code" style="whiteSpace=wrap;html=1;" vertex="1" parent="1">
          <mxGeometry x="39" y="200" width="70" height="40" as="geometry" />
        </mxCell>
        <mxCell id="e2cg2YzqcunQsSNUU6SA-37" value="nalu header" style="whiteSpace=wrap;html=1;" vertex="1" parent="1">
          <mxGeometry x="119" y="200" width="70" height="40" as="geometry" />
        </mxCell>
        <mxCell id="e2cg2YzqcunQsSNUU6SA-38" value="sps data" style="whiteSpace=wrap;html=1;" vertex="1" parent="1">
          <mxGeometry x="189" y="200" width="100" height="40" as="geometry" />
        </mxCell>
        <mxCell id="e2cg2YzqcunQsSNUU6SA-39" value="Annex-B" style="text;html=1;strokeColor=none;fillColor=none;align=center;verticalAlign=middle;whiteSpace=wrap;rounded=0;" vertex="1" parent="1">
          <mxGeometry x="39" y="170" width="70" height="20" as="geometry" />
        </mxCell>
        <mxCell id="e2cg2YzqcunQsSNUU6SA-40" value="&lt;span style=&quot;color: rgb(0 , 0 , 0) ; font-family: &amp;#34;helvetica&amp;#34; ; font-size: 13px ; font-style: normal ; font-weight: 400 ; letter-spacing: normal ; text-align: center ; text-indent: 0px ; text-transform: none ; word-spacing: 0px ; background-color: rgb(248 , 249 , 250) ; display: inline ; float: none&quot;&gt;&lt;span&gt;&amp;nbsp;&lt;/span&gt;sps &amp;amp;&amp;amp; pps组织形式&lt;/span&gt;" style="text;whiteSpace=wrap;html=1;" vertex="1" parent="1">
          <mxGeometry x="39" y="130" width="140" height="30" as="geometry" />
        </mxCell>
        <mxCell id="e2cg2YzqcunQsSNUU6SA-41" value="NALU size" style="whiteSpace=wrap;html=1;" vertex="1" parent="1">
          <mxGeometry x="159" y="290" width="70" height="40" as="geometry" />
        </mxCell>
        <mxCell id="e2cg2YzqcunQsSNUU6SA-42" value="&lt;span style=&quot;color: rgb(77 , 77 , 77) ; font-family: &amp;#34;microsoft yahei&amp;#34; , &amp;#34;sf pro display&amp;#34; , &amp;#34;roboto&amp;#34; , &amp;#34;noto&amp;#34; , &amp;#34;arial&amp;#34; , &amp;#34;pingfang sc&amp;#34; , sans-serif ; background-color: rgb(255 , 255 , 255)&quot;&gt;&lt;font style=&quot;font-size: 12px&quot;&gt;extradata&lt;/font&gt;&lt;/span&gt;" style="whiteSpace=wrap;html=1;" vertex="1" parent="1">
          <mxGeometry x="39" y="290" width="110" height="40" as="geometry" />
        </mxCell>
        <mxCell id="e2cg2YzqcunQsSNUU6SA-43" value="playload data" style="whiteSpace=wrap;html=1;" vertex="1" parent="1">
          <mxGeometry x="329" y="290" width="150" height="40" as="geometry" />
        </mxCell>
        <mxCell id="e2cg2YzqcunQsSNUU6SA-44" value="AVCC" style="text;html=1;strokeColor=none;fillColor=none;align=center;verticalAlign=middle;whiteSpace=wrap;rounded=0;" vertex="1" parent="1">
          <mxGeometry x="39" y="260" width="70" height="20" as="geometry" />
        </mxCell>
        <mxCell id="e2cg2YzqcunQsSNUU6SA-45" value="nalu header" style="whiteSpace=wrap;html=1;" vertex="1" parent="1">
          <mxGeometry x="239" y="290" width="90" height="40" as="geometry" />
        </mxCell>
        <mxCell id="e2cg2YzqcunQsSNUU6SA-46" value="" style="edgeStyle=orthogonalEdgeStyle;rounded=0;orthogonalLoop=1;jettySize=auto;html=1;entryX=0.5;entryY=1;entryDx=0;entryDy=0;" edge="1" parent="1" source="e2cg2YzqcunQsSNUU6SA-47" target="e2cg2YzqcunQsSNUU6SA-42">
          <mxGeometry relative="1" as="geometry">
            <mxPoint x="169" y="370" as="targetPoint" />
          </mxGeometry>
        </mxCell>
        <mxCell id="e2cg2YzqcunQsSNUU6SA-47" value="&lt;span style=&quot;color: rgb(0 , 0 , 0) ; font-family: &amp;#34;helvetica&amp;#34; ; font-size: 12px ; font-style: normal ; font-weight: 400 ; letter-spacing: normal ; text-align: center ; text-indent: 0px ; text-transform: none ; word-spacing: 0px ; background-color: rgb(248 , 249 , 250) ; display: inline ; float: none&quot;&gt;sps &amp;amp;&amp;amp; pps data&lt;/span&gt;" style="text;whiteSpace=wrap;html=1;" vertex="1" parent="1">
          <mxGeometry x="44" y="360" width="100" height="30" as="geometry" />
        </mxCell>
        <mxCell id="e2cg2YzqcunQsSNUU6SA-48" value="start code" style="whiteSpace=wrap;html=1;" vertex="1" parent="1">
          <mxGeometry x="559" y="200" width="70" height="40" as="geometry" />
        </mxCell>
        <mxCell id="e2cg2YzqcunQsSNUU6SA-49" value="&lt;span style=&quot;color: rgb(0 , 0 , 0) ; font-family: &amp;#34;helvetica&amp;#34; ; font-size: 12px ; font-style: normal ; font-weight: 400 ; letter-spacing: normal ; text-align: center ; text-indent: 0px ; text-transform: none ; word-spacing: 0px ; background-color: rgb(248 , 249 , 250) ; display: inline ; float: none&quot;&gt;in container&lt;br&gt;e.g mp4, in stbl/stsd/avcC&lt;br&gt;&lt;/span&gt;" style="text;whiteSpace=wrap;html=1;" vertex="1" parent="1">
          <mxGeometry x="34" y="420" width="140" height="40" as="geometry" />
        </mxCell>
        <mxCell id="e2cg2YzqcunQsSNUU6SA-50" value="start code" style="whiteSpace=wrap;html=1;" vertex="1" parent="1">
          <mxGeometry x="298" y="200" width="70" height="40" as="geometry" />
        </mxCell>
        <mxCell id="e2cg2YzqcunQsSNUU6SA-51" value="nalu header" style="whiteSpace=wrap;html=1;" vertex="1" parent="1">
          <mxGeometry x="379" y="200" width="70" height="40" as="geometry" />
        </mxCell>
        <mxCell id="e2cg2YzqcunQsSNUU6SA-52" value="pps data" style="whiteSpace=wrap;html=1;" vertex="1" parent="1">
          <mxGeometry x="449" y="200" width="100" height="40" as="geometry" />
        </mxCell>
        <mxCell id="e2cg2YzqcunQsSNUU6SA-53" value="nalu header" style="whiteSpace=wrap;html=1;" vertex="1" parent="1">
          <mxGeometry x="639" y="200" width="70" height="40" as="geometry" />
        </mxCell>
        <mxCell id="e2cg2YzqcunQsSNUU6SA-54" value="playload" style="whiteSpace=wrap;html=1;" vertex="1" parent="1">
          <mxGeometry x="709" y="200" width="100" height="40" as="geometry" />
        </mxCell>
      </root>
    </mxGraphModel>
  </diagram>
</mxfile>
